# xmcd CD database file generated by Grip 3.0.6
# 
# Track frame offsets:
#       187
#       16762
#       35865
#       48832
#       62397
#       71462
#       83240
#       96910
#       106825
#       118722
#       133175
#       152922
#       166630
#       195117
#       209865
#       223245
#       238137
# 
# Disc length: 3427 seconds
# 
# Revision: 3
# Processed by: cddbd v1.4PL0 Copyright (c) Steve Scherf et al.
# Submitted via: Grip 3.0.6
# 
DISCID=eb0d6111
DTITLE=Ray Charles - Best Of Ray Charles
DYEAR=1989
DGENRE=Blues
TTITLE0=Georgia On My Mind
TTITLE1=I Can't Stop Loving You
TTITLE2=Unchain My Heart
TTITLE3=You Are My Sunshine
TTITLE4=Hit The Road Jack
TTITLE5=In The Heat Of The Night
TTITLE6=Let's Go Get Stoned
TTITLE7=Busted
TTITLE8=Don't Set Me Free
TTITLE9=Hide Nor Hair
TTITLE10=That Lucky Old Sun
TTITLE11=At The Club
TTITLE12=Makin' Whoopee Part1 2
TTITLE13=You Don't Know Me
TTITLE14=Crying Time
TTITLE15=Here We Go Again
TTITLE16=Ellie My Love
EXTD=
EXTT0=
EXTT1=
EXTT2=
EXTT3=
EXTT4=
EXTT5=
EXTT6=
EXTT7=
EXTT8=
EXTT9=
EXTT10=
EXTT11=
EXTT12=
EXTT13=
EXTT14=
EXTT15=
EXTT16=
PLAYORDER=
